<?xml version="1.0" encoding="UTF-8" standalone="no"?>
<!-- Created with Inkscape (http://www.inkscape.org/) -->

<svg
   xmlns:dc="http://purl.org/dc/elements/1.1/"
   xmlns:cc="http://creativecommons.org/ns#"
   xmlns:rdf="http://www.w3.org/1999/02/22-rdf-syntax-ns#"
   xmlns:svg="http://www.w3.org/2000/svg"
   xmlns="http://www.w3.org/2000/svg"
   xmlns:xlink="http://www.w3.org/1999/xlink"
   xmlns:sodipodi="http://sodipodi.sourceforge.net/DTD/sodipodi-0.dtd"
   xmlns:inkscape="http://www.inkscape.org/namespaces/inkscape"
   width="128"
   height="128"
   id="svg2"
   version="1.1"
   inkscape:version="0.48.2 r9819"
   sodipodi:docname="MPT.svg">
  <defs
     id="defs4">
    <linearGradient
       id="linearGradient3821">
      <stop
         style="stop-color:#efefef;stop-opacity:1;"
         offset="0"
         id="stop3823" />
      <stop
         style="stop-color:#cccccc;stop-opacity:1;"
         offset="1"
         id="stop3825" />
    </linearGradient>
    <linearGradient
       id="linearGradient3798">
      <stop
         id="stop3800"
         offset="0"
         style="stop-color:#f18d1d;stop-opacity:1;" />
      <stop
         id="stop3802"
         offset="1"
         style="stop-color:#cf5915;stop-opacity:1;" />
    </linearGradient>
    <linearGradient
       id="linearGradient3782">
      <stop
         style="stop-color:#f1c01d;stop-opacity:1;"
         offset="0"
         id="stop3784" />
      <stop
         style="stop-color:#e77515;stop-opacity:1;"
         offset="1"
         id="stop3786" />
    </linearGradient>
    <linearGradient
       inkscape:collect="always"
       xlink:href="#linearGradient3798"
       id="linearGradient3808"
       gradientUnits="userSpaceOnUse"
       x1="287.8956"
       y1="120.93361"
       x2="287.8956"
       y2="224.86694" />
    <linearGradient
       inkscape:collect="always"
       xlink:href="#linearGradient3782"
       id="linearGradient3815"
       gradientUnits="userSpaceOnUse"
       x1="287.8956"
       y1="120.93361"
       x2="287.8956"
       y2="224.86694" />
    <linearGradient
       inkscape:collect="always"
       xlink:href="#linearGradient3798"
       id="linearGradient3817"
       gradientUnits="userSpaceOnUse"
       x1="287.8956"
       y1="120.93361"
       x2="287.8956"
       y2="224.86694" />
    <linearGradient
       inkscape:collect="always"
       xlink:href="#linearGradient3821"
       id="linearGradient3827"
       x1="260.35712"
       y1="172.71933"
       x2="313.21429"
       y2="172.71933"
       gradientUnits="userSpaceOnUse" />
    <linearGradient
       inkscape:collect="always"
       xlink:href="#linearGradient3782"
       id="linearGradient3915"
       gradientUnits="userSpaceOnUse"
       x1="287.8956"
       y1="120.93361"
       x2="287.8956"
       y2="224.86694" />
    <linearGradient
       inkscape:collect="always"
       xlink:href="#linearGradient3798"
       id="linearGradient3917"
       gradientUnits="userSpaceOnUse"
       x1="287.8956"
       y1="120.93361"
       x2="287.8956"
       y2="224.86694" />
    <linearGradient
       inkscape:collect="always"
       xlink:href="#linearGradient3798"
       id="linearGradient3919"
       gradientUnits="userSpaceOnUse"
       x1="287.8956"
       y1="120.93361"
       x2="287.8956"
       y2="224.86694" />
    <linearGradient
       inkscape:collect="always"
       xlink:href="#linearGradient3821"
       id="linearGradient3921"
       gradientUnits="userSpaceOnUse"
       x1="260.35712"
       y1="172.71933"
       x2="313.21429"
       y2="172.71933" />
  </defs>
  <sodipodi:namedview
     id="base"
     pagecolor="#ffffff"
     bordercolor="#666666"
     borderopacity="1.0"
     inkscape:pageopacity="0.0"
     inkscape:pageshadow="2"
     inkscape:zoom="2.9029174"
     inkscape:cx="7.0653193"
     inkscape:cy="57.538542"
     inkscape:document-units="px"
     inkscape:current-layer="layer1"
     showgrid="false"
     inkscape:window-width="1920"
     inkscape:window-height="1138"
     inkscape:window-x="-8"
     inkscape:window-y="-8"
     inkscape:window-maximized="1"
     inkscape:snap-bbox="true"
     inkscape:bbox-paths="true"
     inkscape:bbox-nodes="true"
     inkscape:snap-bbox-edge-midpoints="true"
     inkscape:snap-bbox-midpoints="true" />
  <metadata
     id="metadata7">
    <rdf:RDF>
      <cc:Work
         rdf:about="">
        <dc:format>image/svg+xml</dc:format>
        <dc:type
           rdf:resource="http://purl.org/dc/dcmitype/StillImage" />
        <dc:title></dc:title>
      </cc:Work>
    </rdf:RDF>
  </metadata>
  <g
     inkscape:label="Layer 1"
     inkscape:groupmode="layer"
     id="layer1"
     transform="translate(0,-924.36218)">
    <g
       id="g3891"
       transform="translate(0.46385055,-5.1492283)">
      <path
         transform="matrix(0.99396639,0,0,0.99396639,-222.58418,821.12423)"
         sodipodi:type="arc"
         style="fill:url(#linearGradient3915);fill-opacity:1;fill-rule:evenodd;stroke:url(#linearGradient3917);stroke-width:1px;stroke-linecap:butt;stroke-linejoin:miter;stroke-opacity:1"
         id="path3813"
         sodipodi:cx="287.85715"
         sodipodi:cy="173.43361"
         sodipodi:rx="52.318687"
         sodipodi:ry="52.318687"
         d="m 340.17583,173.43361 c 0,28.89481 -23.42387,52.31869 -52.31868,52.31869 -28.89482,0 -52.31869,-23.42388 -52.31869,-52.31869 0,-28.89481 23.42387,-52.31869 52.31869,-52.31869 28.89481,0 52.31868,23.42388 52.31868,52.31869 z" />
      <path
         d="m 340.17583,173.43361 c 0,28.89481 -23.42387,52.31869 -52.31868,52.31869 -28.89482,0 -52.31869,-23.42388 -52.31869,-52.31869 0,-28.89481 23.42387,-52.31869 52.31869,-52.31869 28.89481,0 52.31868,23.42388 52.31868,52.31869 z"
         sodipodi:ry="52.318687"
         sodipodi:rx="52.318687"
         sodipodi:cy="173.43361"
         sodipodi:cx="287.85715"
         id="path3804"
         style="fill:#ffffff;fill-opacity:1;fill-rule:evenodd;stroke:url(#linearGradient3919);stroke-width:1px;stroke-linecap:butt;stroke-linejoin:miter;stroke-opacity:1"
         sodipodi:type="arc"
         transform="matrix(0.78570677,0,0,0.78570676,-162.63516,857.24345)" />
      <path
         inkscape:connector-curvature="0"
         id="path3810"
         d="m 63.551757,944.84393 c -26.23573,0 -47.51562,21.58621 -47.51562,48.19962 0,0.60764 0.009,1.1982 0.0311,1.80038 0.92919,-25.78318 21.84018,-46.39924 47.48448,-46.39924 25.64429,0 46.524153,20.61606 47.453343,46.39924 0.022,-0.60218 0.0311,-1.19274 0.0311,-1.80038 0,-26.61341 -21.248763,-48.19962 -47.484483,-48.19962 z"
         style="opacity:0.3;fill:#ffff00;fill-opacity:1;fill-rule:evenodd;stroke:none" />
      <path
         transform="matrix(0.50126765,0.86822103,-0.86822103,0.50126765,69.738307,657.93941)"
         d="m 313.21428,172.71933 c 0,14.5961 -11.83248,26.42857 -26.42857,26.42857 -14.5961,0 -26.42858,-11.83247 -26.42858,-26.42857 0,-14.5961 11.83248,-26.42857 26.42858,-26.42857 14.59609,0 26.42857,11.83247 26.42857,26.42857 z"
         sodipodi:ry="26.428572"
         sodipodi:rx="26.428572"
         sodipodi:cy="172.71933"
         sodipodi:cx="286.78571"
         id="path3819"
         style="fill:url(#linearGradient3921);fill-opacity:1;stroke:none"
         sodipodi:type="arc" />
      <path
         transform="matrix(2.0999999,0,0,2.0999999,-870.21379,696.42582)"
         d="m 446.07142,141.46933 c 0,0.78898 -0.63959,1.42857 -1.42857,1.42857 -0.78898,0 -1.42857,-0.63959 -1.42857,-1.42857 0,-0.78898 0.63959,-1.42857 1.42857,-1.42857 0.78898,0 1.42857,0.63959 1.42857,1.42857 z"
         sodipodi:ry="1.4285715"
         sodipodi:rx="1.4285715"
         sodipodi:cy="141.46933"
         sodipodi:cx="444.64285"
         id="path3849"
         style="fill:#696866;fill-opacity:1;stroke:none"
         sodipodi:type="arc" />
      <g
         transform="translate(-381.58749,815.91708)"
         id="g3861">
        <path
           sodipodi:type="arc"
           style="fill:#696866;fill-opacity:1;stroke:none"
           id="path3845"
           sodipodi:cx="444.64285"
           sodipodi:cy="141.46933"
           sodipodi:rx="1.4285715"
           sodipodi:ry="1.4285715"
           d="m 446.07142,141.46933 c 0,0.78898 -0.63959,1.42857 -1.42857,1.42857 -0.78898,0 -1.42857,-0.63959 -1.42857,-1.42857 0,-0.78898 0.63959,-1.42857 1.42857,-1.42857 0.78898,0 1.42857,0.63959 1.42857,1.42857 z"
           transform="matrix(1.05,0,0,1.05,-21.874989,-9.144892)" />
        <path
           sodipodi:type="arc"
           style="fill:#696866;fill-opacity:1;stroke:none"
           id="path3847"
           sodipodi:cx="444.64285"
           sodipodi:cy="141.46933"
           sodipodi:rx="1.4285715"
           sodipodi:ry="1.4285715"
           d="m 446.07142,141.46933 c 0,0.78898 -0.63959,1.42857 -1.42857,1.42857 -0.78898,0 -1.42857,-0.63959 -1.42857,-1.42857 0,-0.78898 0.63959,-1.42857 1.42857,-1.42857 0.78898,0 1.42857,0.63959 1.42857,1.42857 z"
           transform="matrix(1.05,0,0,1.05,-21.874989,67.247965)" />
        <path
           transform="matrix(1.05,0,0,1.05,-59.874989,29.176526)"
           d="m 446.07142,141.46933 c 0,0.78898 -0.63959,1.42857 -1.42857,1.42857 -0.78898,0 -1.42857,-0.63959 -1.42857,-1.42857 0,-0.78898 0.63959,-1.42857 1.42857,-1.42857 0.78898,0 1.42857,0.63959 1.42857,1.42857 z"
           sodipodi:ry="1.4285715"
           sodipodi:rx="1.4285715"
           sodipodi:cy="141.46933"
           sodipodi:cx="444.64285"
           id="path3857"
           style="fill:#696866;fill-opacity:1;stroke:none"
           sodipodi:type="arc" />
        <path
           transform="matrix(1.05,0,0,1.05,16.37227,29.176526)"
           d="m 446.07142,141.46933 c 0,0.78898 -0.63959,1.42857 -1.42857,1.42857 -0.78898,0 -1.42857,-0.63959 -1.42857,-1.42857 0,-0.78898 0.63959,-1.42857 1.42857,-1.42857 0.78898,0 1.42857,0.63959 1.42857,1.42857 z"
           sodipodi:ry="1.4285715"
           sodipodi:rx="1.4285715"
           sodipodi:cy="141.46933"
           sodipodi:cx="444.64285"
           id="path3851"
           style="fill:#696866;fill-opacity:1;stroke:none"
           sodipodi:type="arc" />
      </g>
      <g
         id="g3875"
         transform="matrix(0.8660254,0.5,-0.5,0.8660254,-233.06409,617.15016)">
        <path
           sodipodi:type="arc"
           style="fill:#696866;fill-opacity:1;stroke:none"
           id="path3877"
           sodipodi:cx="444.64285"
           sodipodi:cy="141.46933"
           sodipodi:rx="1.4285715"
           sodipodi:ry="1.4285715"
           d="m 446.07142,141.46933 c 0,0.78898 -0.63959,1.42857 -1.42857,1.42857 -0.78898,0 -1.42857,-0.63959 -1.42857,-1.42857 0,-0.78898 0.63959,-1.42857 1.42857,-1.42857 0.78898,0 1.42857,0.63959 1.42857,1.42857 z"
           transform="matrix(1.05,0,0,1.05,-21.874989,-9.144892)" />
        <path
           sodipodi:type="arc"
           style="fill:#696866;fill-opacity:1;stroke:none"
           id="path3879"
           sodipodi:cx="444.64285"
           sodipodi:cy="141.46933"
           sodipodi:rx="1.4285715"
           sodipodi:ry="1.4285715"
           d="m 446.07142,141.46933 c 0,0.78898 -0.63959,1.42857 -1.42857,1.42857 -0.78898,0 -1.42857,-0.63959 -1.42857,-1.42857 0,-0.78898 0.63959,-1.42857 1.42857,-1.42857 0.78898,0 1.42857,0.63959 1.42857,1.42857 z"
           transform="matrix(1.05,0,0,1.05,-21.874989,67.247965)" />
        <path
           sodipodi:type="arc"
           style="fill:#696866;fill-opacity:1;stroke:none"
           id="path3881"
           sodipodi:cx="444.64285"
           sodipodi:cy="141.46933"
           sodipodi:rx="1.4285715"
           sodipodi:ry="1.4285715"
           d="m 446.07142,141.46933 c 0,0.78898 -0.63959,1.42857 -1.42857,1.42857 -0.78898,0 -1.42857,-0.63959 -1.42857,-1.42857 0,-0.78898 0.63959,-1.42857 1.42857,-1.42857 0.78898,0 1.42857,0.63959 1.42857,1.42857 z"
           transform="matrix(1.05,0,0,1.05,-59.874989,29.176526)" />
        <path
           transform="matrix(1.05,0,0,1.05,16.37227,29.176526)"
           d="m 446.07142,141.46933 c 0,0.78898 -0.63959,1.42857 -1.42857,1.42857 -0.78898,0 -1.42857,-0.63959 -1.42857,-1.42857 0,-0.78898 0.63959,-1.42857 1.42857,-1.42857 0.78898,0 1.42857,0.63959 1.42857,1.42857 z"
           sodipodi:ry="1.4285715"
           sodipodi:rx="1.4285715"
           sodipodi:cy="141.46933"
           sodipodi:cx="444.64285"
           id="path3883"
           style="fill:#696866;fill-opacity:1;stroke:none"
           sodipodi:type="arc" />
      </g>
      <g
         transform="matrix(0.5,0.8660254,-0.8660254,0.5,-5.1727729,519.25061)"
         id="g3837">
        <path
           transform="matrix(1.05,0,0,1.05,-21.874989,-9.144892)"
           d="m 446.07142,141.46933 c 0,0.78898 -0.63959,1.42857 -1.42857,1.42857 -0.78898,0 -1.42857,-0.63959 -1.42857,-1.42857 0,-0.78898 0.63959,-1.42857 1.42857,-1.42857 0.78898,0 1.42857,0.63959 1.42857,1.42857 z"
           sodipodi:ry="1.4285715"
           sodipodi:rx="1.4285715"
           sodipodi:cy="141.46933"
           sodipodi:cx="444.64285"
           id="path3831"
           style="fill:#696866;fill-opacity:1;stroke:none"
           sodipodi:type="arc" />
        <path
           transform="matrix(1.05,0,0,1.05,-21.874989,67.247965)"
           d="m 446.07142,141.46933 c 0,0.78898 -0.63959,1.42857 -1.42857,1.42857 -0.78898,0 -1.42857,-0.63959 -1.42857,-1.42857 0,-0.78898 0.63959,-1.42857 1.42857,-1.42857 0.78898,0 1.42857,0.63959 1.42857,1.42857 z"
           sodipodi:ry="1.4285715"
           sodipodi:rx="1.4285715"
           sodipodi:cy="141.46933"
           sodipodi:cx="444.64285"
           id="path3833"
           style="fill:#696866;fill-opacity:1;stroke:none"
           sodipodi:type="arc" />
        <path
           transform="matrix(1.05,0,0,1.05,-59.874989,29.176526)"
           d="m 446.07142,141.46933 c 0,0.78898 -0.63959,1.42857 -1.42857,1.42857 -0.78898,0 -1.42857,-0.63959 -1.42857,-1.42857 0,-0.78898 0.63959,-1.42857 1.42857,-1.42857 0.78898,0 1.42857,0.63959 1.42857,1.42857 z"
           sodipodi:ry="1.4285715"
           sodipodi:rx="1.4285715"
           sodipodi:cy="141.46933"
           sodipodi:cx="444.64285"
           id="path3835"
           style="fill:#696866;fill-opacity:1;stroke:none"
           sodipodi:type="arc" />
        <path
           sodipodi:type="arc"
           style="fill:#696866;fill-opacity:1;stroke:none"
           id="path3829"
           sodipodi:cx="444.64285"
           sodipodi:cy="141.46933"
           sodipodi:rx="1.4285715"
           sodipodi:ry="1.4285715"
           d="m 446.07142,141.46933 c 0,0.78898 -0.63959,1.42857 -1.42857,1.42857 -0.78898,0 -1.42857,-0.63959 -1.42857,-1.42857 0,-0.78898 0.63959,-1.42857 1.42857,-1.42857 0.78898,0 1.42857,0.63959 1.42857,1.42857 z"
           transform="matrix(1.05,0,0,1.05,16.37227,29.176526)" />
      </g>
      <rect
         transform="matrix(0.05233596,-0.99862953,0.99862953,0.05233596,0,0)"
         style="fill:#696866;fill-opacity:1;stroke:none"
         id="rect3867"
         width="8"
         height="25"
         x="-993.04877"
         y="85.720001"
         ry="4" />
      <rect
         transform="matrix(0.80901699,0.58778525,-0.58778525,0.80901699,0,0)"
         ry="3"
         y="731.40845"
         x="632.56213"
         height="30"
         width="6"
         id="rect3859"
         style="fill:#696866;fill-opacity:1;stroke:none" />
    </g>
  </g>
</svg>
